#!OML:ASF H:\Terrain\Patient Classification 1\Walking\liu\liu.ASF
:FULLY-SPECIFIED
:DEGREES
404
root 19.362560 33.759602 40.871799 13.077180 -3.215440 -15.371320
lowerback -16.388500 6.529080 6.714440
upperback 0.528518 7.651720 8.240720
thorax 9.617100 3.851200 5.759780
lowerneck -38.630600 -12.259520 -26.792000
upperneck 42.431400 -15.658840 26.146400
head 22.297199 -6.311120 11.651260
rclavicle 0.000000 -0.000000
rhumerus -54.022202 30.136801 -169.664001
rradius 78.984596
rwrist -35.767399
rhand -60.520401 -42.079800
rfingers 14.250040
rthumb -7.137480 -101.979401
lclavicle 0.000000 -0.000000
lhumerus -106.927002 -18.543180 192.740601
lradius 54.205799
lwrist 16.467960
lhand -20.723600 -52.529800
lfingers 14.250040
lthumb 31.270399 6.246600
rfemur 35.130001 11.805100 66.550400
rtibia -0.000000
rfoot -15.531940 13.898020
rtoes -20.544201
lfemur -86.210403 -6.971160 -17.376900
ltibia 42.115002
lfoot -32.150200 27.055799
ltoes -24.990200
405
root 19.396339 33.720200 41.220001 13.326480 -3.272680 -15.102600
lowerback -17.080040 6.571280 6.340820
upperback 0.499428 7.712300 8.061840
thorax 9.961300 3.872760 5.834860
lowerneck -38.207600 -12.137760 -26.877800
upperneck 42.087002 -15.556740 26.445601
head 22.090401 -6.253360 11.788480
rclavicle 0.000000 0.000000
rhumerus -54.612202 30.182400 -170.173798
rradius 78.388603
rwrist -35.774601
rhand -59.788799 -43.890999
rfingers 14.250040
rthumb -6.430960 -103.802002
lclavicle 0.000000 0.000000
lhumerus -106.881401 -18.416321 192.512802
lradius 53.639000
lwrist 15.622140
lhand -14.978180 -41.641399
lfingers 14.250040
lthumb 36.800800 16.658039
rfemur 36.187199 11.748520 66.091400
rtibia -0.000000
rfoot -15.409660 13.998160
rtoes -19.964041
lfemur -86.194801 -4.801480 -19.373581
ltibia 43.465599
lfoot -31.096600 24.760000
ltoes -24.163000
406
root 19.436781 33.644001 41.554600 13.393000 -3.150840 -15.350620
lowerback -17.132959 6.557280 6.530920
upperback 0.277742 7.680840 8.082080
thorax 9.770680 3.861400 5.738680
lowerneck -37.759201 -12.216020 -27.071400
upperneck 41.997002 -15.648320 26.409599
head 21.992001 -6.331200 11.791540
rclavicle 0.000000 0.000000
rhumerus -55.486000 30.342199 -170.802200
rradius 77.622002
rwrist -36.250000
rhand -60.069599 -43.203400
rfingers 14.250040
rthumb -6.702120 -103.110199
lclavicle 0.000000 0.000000
lhumerus -107.357002 -17.947701 192.317001
lradius 53.620201
lwrist 14.519800
lhand -16.720079 -46.227001
lfingers 14.250040
lthumb 35.124802 12.226420
rfemur 37.484402 11.513100 66.279999
rtibia -0.000000
rfoot -14.976960 13.884880
rtoes -24.202801
lfemur -86.178398 -2.949580 -20.599001
ltibia 44.917198
lfoot -29.940201 22.333200
ltoes -26.212000
407
root 19.490080 33.587601 41.882801 13.495940 -2.795420 -15.867660
lowerback -16.857121 6.605100 7.346660
upperback 0.037618 7.697460 7.962300
thorax 9.426700 3.889000 5.131580
lowerneck -38.198200 -12.435980 -26.987000
upperneck 42.418999 -15.969140 26.381800
head 22.279400 -6.457320 11.725760
rclavicle -0.000000 -0.000000
rhumerus -56.266800 29.464399 -171.335205
rradius 77.013603
rwrist -35.827999
rhand -60.278400 -41.270599
rfingers 14.250040
rthumb -6.903780 -101.174202
lclavicle -0.000000 -0.000000
lhumerus -107.731796 -17.955420 192.097198
lradius 53.613998
lwrist 13.519360
lhand -13.509980 -41.684200
lfingers 14.250040
lthumb 38.212799 16.478920
rfemur 38.562401 11.103320 66.693001
rtibia -0.000000
rfoot -14.189500 13.824400
rtoes -29.511801
lfemur -86.125603 -1.710976 -21.206400
ltibia 46.380798
lfoot -28.753401 20.243999
ltoes -26.966999
408
root 19.576740 33.546600 42.228001 13.845160 -2.472560 -15.391340
lowerback -17.187120 6.591200 7.471060
upperback -0.086570 7.670200 7.531020
thorax 9.519840 3.881580 4.625520
lowerneck -38.683399 -12.573600 -26.819201
upperneck 42.579201 -16.139879 26.256800
head 22.446400 -6.517540 11.621940
rclavicle -0.000000 -0.000000
rhumerus -56.976200 28.668200 -171.710800
rradius 76.798203
rwrist -34.817001
rhand -59.985802 -41.558601
rfingers 14.250040
rthumb -6.621260 -101.466797
lclavicle -0.000000 -0.000000
lhumerus -107.669601 -18.124380 192.020401
lradius 53.337799
lwrist 12.839720
lhand -15.047420 -44.434200
lfingers 14.250040
lthumb 36.734200 13.871500
rfemur 39.403400 10.746320 65.762199
rtibia 0.000000
rfoot -13.410040 13.940220
rtoes -30.282400
lfemur -85.919800 -0.932644 -22.957600
ltibia 47.708000
lfoot -27.896000 18.522961
ltoes -26.582199
409
root 19.535521 33.492599 42.599400 13.910660 -3.255380 -15.826460
lowerback -17.630100 6.760900 6.718160
upperback -0.142339 7.933620 7.848660
thorax 9.633140 3.991760 5.436860
lowerneck -38.757801 -12.436880 -26.473200
upperneck 42.702801 -15.945300 25.844400
head 22.438200 -6.444440 11.439640
rclavicle 0.000000 0.000000
rhumerus -58.278000 28.615601 -172.192001
rradius 76.987999
rwrist -34.236401
rhand -59.037201 -44.286999
rfingers 14.250040
rthumb -5.705160 -104.208397
lclavicle 0.000000 0.000000
lhumerus -107.846397 -18.114660 192.173401
lradius 53.297001
lwrist 12.921380
lhand -18.668560 -50.560001
lfingers 14.250040
lthumb 33.249199 8.055900
rfemur 40.602001 11.342240 66.347397
rtibia -0.000000
rfoot -12.543400 13.889700
rtoes -31.412800
lfemur -85.256798 1.075006 -23.037800
ltibia 48.758999
lfoot -25.832800 17.608681
ltoes -24.608601
410
root 19.624319 33.467800 42.908798 14.760800 -2.978560 -15.856480
lowerback -17.703739 6.767600 7.355560
upperback -0.925846 7.924860 7.530140
thorax 8.920100 4.000340 4.715280
lowerneck -38.619202 -12.300400 -26.333599
upperneck 43.134800 -15.890340 25.970400
head 22.563200 -6.397760 11.492220
rclavicle -0.000000 0.000000
rhumerus -60.017601 28.243999 -173.014206
rradius 76.656601
rwrist -33.429600
rhand -58.092201 -46.974400
rfingers 14.250040
rthumb -4.792420 -106.906799
lclavicle -0.000000 0.000000
lhumerus -108.605400 -18.272301 192.153198
lradius 53.387199
lwrist 13.085880
lhand -12.452220 -40.717602
lfingers 14.250040
lthumb 39.230000 17.343281
rfemur 40.762600 11.184940 65.939400
rtibia 0.000000
rfoot -11.454020 14.063160
rtoes -31.078800
lfemur -85.879997 2.472920 -24.278000
ltibia 49.213001
lfoot -20.868000 17.854980
ltoes -24.311199
411
root 19.678379 33.476200 43.235199 15.316380 -3.221860 -15.822160
lowerback -17.795420 6.946880 7.545320
upperback -1.343574 8.171280 7.237040
thorax 8.566500 4.125320 4.322160
lowerneck -38.536400 -12.481760 -26.580200
upperneck 43.147800 -16.189280 26.351200
head 22.631001 -6.513880 11.633060
rclavicle -0.000000 -0.000000
rhumerus -60.971401 27.602600 -173.613007
rradius 75.773003
rwrist -32.696999
rhand -58.571602 -48.145802
rfingers 14.250040
rthumb -5.255380 -108.072800
lclavicle -0.000000 -0.000000
lhumerus -108.671402 -17.959221 191.585205
lradius 53.021198
lwrist 12.177980
lhand -12.798140 -41.883598
lfingers 14.250040
lthumb 38.897400 16.211000
rfemur 41.249599 11.426080 65.568199
rtibia 0.000000
rfoot -9.769680 14.093480
rtoes -31.259199
lfemur -86.305000 3.239760 -24.758801
ltibia 49.458199
lfoot -15.148720 20.281000
ltoes -27.556200
412
root 19.701481 33.514801 43.556999 15.724820 -3.322980 -15.248660
lowerback -17.786221 6.949100 6.657440
upperback -2.050020 8.306020 7.045360
thorax 7.773320 4.175800 4.595480
lowerneck -36.888802 -12.472400 -27.089399
upperneck 42.781399 -16.300800 26.757401
head 22.236200 -6.621820 11.857180
rclavicle 0.000000 -0.000000
rhumerus -62.842602 26.703199 -174.005402
rradius 75.313400
rwrist -31.890400
rhand -59.402401 -48.141800
rfingers 14.250040
rthumb -6.057860 -108.058197
lclavicle 0.000000 -0.000000
lhumerus -109.217598 -17.129560 191.140396
lradius 52.291401
lwrist 10.852320
lhand -13.617360 -43.105202
lfingers 14.250040
lthumb 38.109600 15.068060
rfemur 41.895000 11.423900 64.712402
rtibia -0.000000
rfoot -7.784260 14.222520
rtoes -30.818399
lfemur -86.672203 3.829360 -25.657000
ltibia 49.903801
lfoot -10.281580 21.836800
ltoes -28.815201
413
root 19.730921 33.521198 43.878399 16.076599 -3.217440 -14.380080
lowerback -17.966221 6.840000 5.469700
upperback -1.767580 8.269740 6.750060
thorax 8.106080 4.142600 4.968820
lowerneck -38.963200 -13.013420 -27.438400
upperneck 43.266998 -16.923140 27.382601
head 22.976999 -6.786300 12.060860
rclavicle 0.000000 -0.000000
rhumerus -62.803398 26.002399 -174.040604
rradius 75.076797
rwrist -31.090799
rhand -59.235802 -48.136799
rfingers 14.250040
rthumb -5.896940 -108.055603
lclavicle 0.000000 -0.000000
lhumerus -107.616600 -16.979740 190.707596
lradius 51.463402
lwrist 10.209000
lhand -14.143620 -43.770000
lfingers 14.250040
lthumb 37.603600 14.452760
rfemur 42.547199 11.171380 63.576801
rtibia 0.000000
rfoot -5.442680 14.061480
rtoes -29.927401
lfemur -87.204597 4.920240 -27.379400
ltibia 51.006001
lfoot -5.491480 22.450600
ltoes -27.674999
414
root 19.781540 33.533199 44.233002 16.167000 -3.260040 -13.677060
lowerback -18.088699 6.720200 4.784580
upperback -1.680008 8.183140 6.433020
thorax 8.242340 4.090400 5.021440
lowerneck -39.732601 -13.158840 -27.569599
upperneck 43.230202 -17.092859 27.767799
head 23.171400 -6.802080 12.199340
rclavicle -0.000000 0.000000
rhumerus -63.584202 25.814600 -174.615402
rradius 74.744202
rwrist -30.340200
rhand -58.340401 -48.458599
rfingers 14.250040
rthumb -5.032180 -108.388397
lclavicle -0.000000 0.000000
lhumerus -106.608597 -16.559799 190.017593
lradius 50.747200
lwrist 9.684620
lhand -13.691800 -43.699799
lfingers 14.250040
lthumb 38.037998 14.480520
rfemur 43.450401 11.030420 62.602798
rtibia 0.000000
rfoot -2.784980 13.454900
rtoes -29.994200
lfemur -87.094200 6.044300 -29.015600
ltibia 52.464600
lfoot -0.669824 22.954399
ltoes -27.939800
415
root 19.848940 33.532398 44.648201 16.020941 -3.190080 -12.801420
lowerback -18.567020 6.623140 4.221900
upperback -1.672990 8.105940 6.042520
thorax 8.507120 4.043720 4.951780
lowerneck -39.480000 -13.060700 -27.594400
upperneck 43.034599 -16.926840 27.664600
head 23.015200 -6.751140 12.185140
rclavicle 0.000000 0.000000
rhumerus -64.657402 24.981199 -175.130402
rradius 73.416603
rwrist -29.125000
rhand -57.618801 -48.161400
rfingers 14.250040
rthumb -4.335160 -108.098801
lclavicle 0.000000 0.000000
lhumerus -106.027802 -16.241920 189.493393
lradius 49.781399
lwrist 9.168200
lhand -10.359220 -41.562801
lfingers 14.250040
lthumb 41.241600 16.286600
rfemur 44.958199 10.764280 61.301800
rtibia 0.000000
rfoot -0.734796 12.867520
rtoes -30.323000
lfemur -86.459602 6.616240 -30.740801
ltibia 54.647999
lfoot 2.142080 23.276400
ltoes -25.760599
416
root 19.916599 33.529400 45.060600 16.025480 -2.772600 -11.578540
lowerback -19.199619 6.515260 3.358260
upperback -1.774238 8.051800 5.581240
thorax 8.728640 4.003480 4.983880
lowerneck -39.113201 -13.281920 -28.351999
upperneck 43.102001 -17.189461 28.140600
head 23.078199 -6.894020 12.464120
rclavicle -0.000000 -0.000000
rhumerus -65.652199 24.049801 -175.361801
rradius 71.656601
rwrist -28.587999
rhand -57.799801 -47.219002
rfingers 14.250040
rthumb -4.510160 -107.154602
lclavicle -0.000000 -0.000000
lhumerus -105.720001 -16.619040 189.518600
lradius 49.101200
lwrist 9.055460
lhand -12.798440 -43.329399
lfingers 14.250040
lthumb 38.896999 14.765240
rfemur 46.081600 10.163700 59.605000
rtibia -0.000000
rfoot 1.679424 12.136460
rtoes -29.556801
lfemur -86.321800 6.753680 -32.804199
ltibia 57.098598
lfoot 3.816840 23.097200
ltoes -15.688560
